<?xml version="1.0" encoding="utf-8"?>
<!-- Generator: Adobe Illustrator 28.3.0, SVG Export Plug-In . SVG Version: 6.00 Build 0)  -->
<svg version="1.1" id="Layer_1" xmlns="http://www.w3.org/2000/svg" xmlns:xlink="http://www.w3.org/1999/xlink" x="0px" y="0px"
	 viewBox="0 0 604.5 97.05" style="enable-background:new 0 0 604.5 97.05;" xml:space="preserve">
<style type="text/css">
	.st0{fill:#621EFF;}
	.st1{fill:#9E75FE;}
	.st2{fill:#361C74;}
</style>
<g>
	<path class="st0" d="M55.59,57.15l46.73-29.18V5.07c0-1.67-1.84-2.68-3.25-1.79L54.54,31.4c-0.69,0.44-1.57,0.44-2.26,0L7.75,3.28
		C6.34,2.39,4.5,3.4,4.5,5.07v40.8l15.48-8.96c0.69-0.4,1.54-0.38,2.21,0.06l31.12,20.16C54,57.57,54.89,57.58,55.59,57.15z"/>
	<path class="st1" d="M4.5,65.44v20.12c0,1.67,1.84,2.68,3.25,1.79l31.4-19.83L22.19,56.53c-0.67-0.43-1.52-0.45-2.21-0.06
		L4.5,65.44z"/>
	<path class="st1" d="M102.31,47.85L69.06,68.4l30.01,18.95c1.41,0.89,3.25-0.12,3.25-1.79V47.85z"/>
</g>
<g>
	<path class="st2" d="M243.37,18.87l0.03,0.01c-1.42-0.92-3.03-1.25-4.7-1.25c-1.68,0-3.27,0.32-4.7,1.25
		c-2.75,1.8-4.45,5.97-5.77,8.88l-15.05,33.05h-8.28V30.85c0-0.4-0.02-0.8-0.05-1.18c-0.3-5.67-4.35-10.48-9.88-11.73
		c-0.92-0.2-1.88-0.32-2.85-0.32c-0.25,0-0.48,0-0.72,0.02c-3.93,0.22-7.55,2.25-9.78,5.5l-0.58,0.82L166.37,56.2l-14.7-32.23
		l-0.58-0.82c-2.25-3.25-5.85-5.27-9.78-5.5c-0.25-0.02-0.48-0.02-0.72-0.02c-0.95,0-1.9,0.1-2.85,0.32
		c-5.53,1.25-9.58,6.05-9.88,11.73c-0.02,0.4-0.05,0.8-0.05,1.18V72.8h12.2V30.85c0-0.08,0-0.18,0.02-0.25l0.02-0.1v-0.15
		c0-0.25,0.18-0.48,0.42-0.52c0.05,0,0.08-0.02,0.12-0.02c0.15,0,0.3,0.08,0.42,0.2l14.87,32.65c1.32,2.9,3,7.08,5.77,8.88
		c1.42,0.92,3.03,1.25,4.7,1.25s3.27-0.32,4.7-1.25c2.75-1.8,4.45-5.97,5.77-8.88L191.72,30c0.1-0.12,0.25-0.2,0.4-0.2
		c0.05,0,0.08,0,0.12,0.02c0.25,0.05,0.42,0.28,0.42,0.52v0.15l0.02,0.1c0.02,0.08,0.02,0.18,0.02,0.25V72.8h0.35v0.22h28l4.93-10.8
		h25.5l4.93,10.8h13.43l-20.7-45.28C247.83,24.85,246.12,20.7,243.37,18.87z M231.51,50.03l7.2-15.8l7.2,15.8H231.51z"/>
	<path class="st2" d="M315.91,20.32l-12.67,15.4V35.7l-7.9,9.6v0l7.9-9.6l-12.65-15.38c-1.42-1.7-3.53-2.7-5.75-2.7h-12.3l22.8,27.7
		l-22.8,27.7h12.3c2.23,0,4.33-1,5.73-2.7l12.67-15.4l-7.88-9.6l20.55,24.98c1.4,1.7,3.5,2.7,5.73,2.7h12.27l-22.77-27.68v-0.05
		l22.77-27.65h-12.27C319.41,17.63,317.31,18.63,315.91,20.32z"/>
	<polygon class="st2" points="333.92,17.63 333.92,17.62 333.91,17.63 	"/>
	<path class="st2" d="M501.58,34.49c0-7.17-4.57-13.57-11.3-15.97c-1.81-0.65-3.72-0.98-5.65-0.98h-28.15
		c-6.41,0.03-11.62,5.2-11.62,11.62v12.99v0.02h0.09v18.66H413.6h-0.01c-0.42,0-0.78-0.35-0.78-0.78V17.63h-55.05
		c-11.58,0-21.05,9.48-21.05,21.05v13.3c0,11.58,9.48,21.05,21.05,21.05h35.42v-12.2h-35.42c-4.87,0-8.85-3.97-8.85-8.85v-0.55
		h33.48v-12.2h-33.45v-0.55c0-4.87,3.97-8.85,8.85-8.85h42.86v31.6c0,6.4,5.2,11.6,11.6,11.6h32.7v0.06h12.24V51.44h27.44
		C493.95,51.44,501.58,43.81,501.58,34.49z M489.33,34.52c-0.02,2.57-2.14,4.67-4.7,4.67h-27.44v-9c0.14-0.25,0.4-0.41,0.68-0.41
		h26.75c2.57,0,4.68,2.1,4.7,4.67V34.52z"/>
	<path class="st2" d="M531.23,18.8c-1.43-0.94-3.03-1.26-4.71-1.26s-3.29,0.32-4.71,1.25l-0.01,0.01c-2.77,1.81-4.46,5.98-5.79,8.9
		l-20.67,45.38h13.45l4.93-10.83h25.57l4.93,10.83h13.45L537.02,27.7C535.69,24.79,534,20.62,531.23,18.8z M519.31,50.01l7.21-15.83
		l7.21,15.83H519.31z"/>
	<polygon class="st2" points="588.65,17.54 573.73,35.68 558.81,17.54 542.97,17.54 567.62,47.5 567.62,73.08 579.85,73.08 
		579.85,47.5 604.5,17.54 	"/>
</g>
</svg>
